<svg id="Layer_1" data-name="Layer 1" xmlns="http://www.w3.org/2000/svg" viewBox="0 0 300 255"><defs><style>.cls-1,.cls-2,.cls-3{fill:#fff;}.cls-1{opacity:0.25;}.cls-2{opacity:0.55;}</style></defs><title>DA_logomark_white</title><path class="cls-1" d="M149.13,221.43c-22.35,19.07-48,27.72-60.08,27.72a17.43,17.43,0,0,1-5.09-.64,8.5,8.5,0,0,1-6.24-6.37,6.39,6.39,0,0,1,4.91-7.58c.89-.19,1.77-.41,2.64-.64a19.48,19.48,0,0,0,3.15,1.69,35.17,35.17,0,0,0,13.48,2.33A66.36,66.36,0,0,0,117,236.05,98.55,98.55,0,0,0,149.13,221.43ZM108.41,188.9l.89-.29h0a54.54,54.54,0,0,0,12.36-5.8l.17-.11c-4.51-7.41-15.77-21-43.33-45.05-23.24-20.3-46.58-37.9-46.81-38.08a10.51,10.51,0,0,1,2.1-18c-.24-.43-.46-.86-.68-1.29-.06-.11-.11-.22-.17-.32l-.54-1.08-.11-.22c-.45-.93-.89-1.85-1.3-2.78C21.64,70,15.13,62.2,12.24,55.42a6.36,6.36,0,0,0-5.86-3.89,6.45,6.45,0,0,0-1.63.21A6.44,6.44,0,0,0,0,58.64c.13,1.21,3.47,29.67,20,50.58l-3.49,1.3A6.4,6.4,0,0,0,15.52,122C16.25,122.45,81.59,161.77,108.41,188.9Z"/><path class="cls-2" d="M142.23,221a91.55,91.55,0,0,1-26.15,11.07,62.46,62.46,0,0,1-14.18,1.78,31.09,31.09,0,0,1-11.88-2c-5.59-2.38-6.79-6.23-7-8.31a6.39,6.39,0,0,1,5.67-7l1.2-.14a33,33,0,0,0,6.58,4.76,43.88,43.88,0,0,0,21.44,5.24A61.69,61.69,0,0,0,142.23,221ZM126,180.33h0a23.81,23.81,0,0,0,6-6.5h0a4.31,4.31,0,0,0,.66-1.82c0-1.17-1.13-12.66-40.12-54.69C71.77,94.85,50.94,75.39,50.07,74.58a11.31,11.31,0,0,1,3.46-18.77c-1-2.47-1.85-5-2.59-7.44-6.58-6.29-10.59-13.23-12.26-18.64a6.4,6.4,0,0,0-7.06-4.44,6.44,6.44,0,0,0-5.41,6.36c0,1.23.37,29.87,14.66,52.41L37.26,85A6.41,6.41,0,0,0,35,96.3c.23.17,23.79,18,47,38.27C109.6,158.65,121.22,172.54,126,180.33Z"/><path class="cls-3" d="M299.3,124.7a6.34,6.34,0,0,1-7.66,3.18,28.35,28.35,0,0,0-7.9-1.72,3.64,3.64,0,0,0-2.15.5c-1.93,1.26-4.17,5.63-7,11.18a216.51,216.51,0,0,1-17.37,29.24c-10.59,14.93-23.84,27.49-36.65,39.64-16.24,15.4-31.58,29.95-40.17,47.88l-.19.4H166.33l.39-1c9.17-22.54,27.43-39.85,45.09-56.6,12.36-11.73,25.15-23.85,35-37.77A206.94,206.94,0,0,0,263.24,132c4.87-9.55,8.44-16.55,16.5-18.22-1.43-2.4-4.74-7.17-8.86-8a6.67,6.67,0,0,0-1.27-.13c-2.46,0-5.25,1.39-8.3,4.12-8.44,7.56-18.67,15.28-30.57,15.28a26.2,26.2,0,0,1-2.94-.16c-10.07-1.09-19.35-7.68-28.37-20.16-23.81-32.92-57.38-39.84-84.36-45.41H115c-3.69-.77-7.17-1.48-10.55-2.25A73,73,0,0,1,65.76,34.71c2,10.38,5.45,19.1,10.3,26a6.4,6.4,0,0,1-4.29,10l-.13,0c8.72,8.45,21.35,21,33.91,34.54,44.84,48.35,44.84,62.2,44.84,66.75,0,8.89-6.7,18.27-18.39,25.74a72.21,72.21,0,0,1-23.13,9.53,28.76,28.76,0,0,0,8.95,1.35c8.48,0,17.75-3.12,27.52-9.25l.19-.11c7.75-4.52,14.89-6.81,21.22-6.81a24.6,24.6,0,0,1,4.9.49c6.4,1.32,9.5,4.9,10.06,5.61l.1.12-10,7.92c-.51-.44-1.91-1.33-4.88-1.33s-7.73.87-14.86,5c-11.83,7.41-23.31,11.16-34.12,11.16a39.1,39.1,0,0,1-19.06-4.62c-6.75-3.76-10.94-9.23-10.94-14.28a6.39,6.39,0,0,1,6.37-6.39A59,59,0,0,0,125.15,187c7.58-4.85,12.49-10.72,12.49-15,0-4-4-17.73-41.43-58-21-22.61-41.92-42.17-42.8-43a6.4,6.4,0,0,1,3.42-11l3.69-.54C48.64,35.49,51.29,7,51.4,5.77A6.42,6.42,0,0,1,57.45,0h.3A6.4,6.4,0,0,1,64,5.16c4.46,22.72,28.3,36,43.23,39.4,3.3.75,6.75,1.46,10.4,2.21,27.6,5.7,65.4,13.49,92.11,50.43,6.69,9.25,13.22,14.28,19.42,15a13.82,13.82,0,0,0,1.58.09c6,0,12.77-3.71,22.06-12,5.48-4.9,11.1-7.38,16.7-7.38a19.75,19.75,0,0,1,4,.41c2.87.6,12.72,3.65,19.14,17.65a17.49,17.49,0,0,0,4.74,5.73A6.38,6.38,0,0,1,299.3,124.7Z"/><path class="cls-1" d="M149.13,221.43c-22.35,19.07-48,27.72-60.08,27.72a17.43,17.43,0,0,1-5.09-.64,8.5,8.5,0,0,1-6.24-6.37,6.39,6.39,0,0,1,4.91-7.58c.89-.19,1.77-.41,2.64-.64a19.48,19.48,0,0,0,3.15,1.69,35.17,35.17,0,0,0,13.48,2.33A66.36,66.36,0,0,0,117,236.05,98.55,98.55,0,0,0,149.13,221.43ZM108.41,188.9l.89-.29h0a54.54,54.54,0,0,0,12.36-5.8l.17-.11c-4.51-7.41-15.77-21-43.33-45.05-23.24-20.3-46.58-37.9-46.81-38.08a10.51,10.51,0,0,1,2.1-18c-.24-.43-.46-.86-.68-1.29-.06-.11-.11-.22-.17-.32l-.54-1.08-.11-.22c-.45-.93-.89-1.85-1.3-2.78C21.64,70,15.13,62.2,12.24,55.42a6.36,6.36,0,0,0-5.86-3.89,6.45,6.45,0,0,0-1.63.21A6.44,6.44,0,0,0,0,58.64c.13,1.21,3.47,29.67,20,50.58l-3.49,1.3A6.4,6.4,0,0,0,15.52,122C16.25,122.45,81.59,161.77,108.41,188.9Z"/><path class="cls-2" d="M142.23,221a91.55,91.55,0,0,1-26.15,11.07,62.46,62.46,0,0,1-14.18,1.78,31.09,31.09,0,0,1-11.88-2c-5.59-2.38-6.79-6.23-7-8.31a6.39,6.39,0,0,1,5.67-7l1.2-.14a33,33,0,0,0,6.58,4.76,43.88,43.88,0,0,0,21.44,5.24A61.69,61.69,0,0,0,142.23,221ZM126,180.33h0a23.81,23.81,0,0,0,6-6.5h0a4.31,4.31,0,0,0,.66-1.82c0-1.17-1.13-12.66-40.12-54.69C71.77,94.85,50.94,75.39,50.07,74.58a11.31,11.31,0,0,1,3.46-18.77c-1-2.47-1.85-5-2.59-7.44-6.58-6.29-10.59-13.23-12.26-18.64a6.4,6.4,0,0,0-7.06-4.44,6.44,6.44,0,0,0-5.41,6.36c0,1.23.37,29.87,14.66,52.41L37.26,85A6.41,6.41,0,0,0,35,96.3c.23.17,23.79,18,47,38.27C109.6,158.65,121.22,172.54,126,180.33Z"/><path class="cls-3" d="M299.3,124.7a6.34,6.34,0,0,1-7.66,3.18,28.35,28.35,0,0,0-7.9-1.72,3.64,3.64,0,0,0-2.15.5c-1.93,1.26-4.17,5.63-7,11.18a216.51,216.51,0,0,1-17.37,29.24c-10.59,14.93-23.84,27.49-36.65,39.64-16.24,15.4-31.58,29.95-40.17,47.88l-.19.4H166.33l.39-1c9.17-22.54,27.43-39.85,45.09-56.6,12.36-11.73,25.15-23.85,35-37.77A206.94,206.94,0,0,0,263.24,132c4.87-9.55,8.44-16.55,16.5-18.22-1.43-2.4-4.74-7.17-8.86-8a6.67,6.67,0,0,0-1.27-.13c-2.46,0-5.25,1.39-8.3,4.12-8.44,7.56-18.67,15.28-30.57,15.28a26.2,26.2,0,0,1-2.94-.16c-10.07-1.09-19.35-7.68-28.37-20.16-23.81-32.92-57.38-39.84-84.36-45.41H115c-3.69-.77-7.17-1.48-10.55-2.25A73,73,0,0,1,65.76,34.71c2,10.38,5.45,19.1,10.3,26a6.4,6.4,0,0,1-4.29,10l-.13,0c8.72,8.45,21.35,21,33.91,34.54,44.84,48.35,44.84,62.2,44.84,66.75,0,8.89-6.7,18.27-18.39,25.74a72.21,72.21,0,0,1-23.13,9.53,28.76,28.76,0,0,0,8.95,1.35c8.48,0,17.75-3.12,27.52-9.25l.19-.11c7.75-4.52,14.89-6.81,21.22-6.81a24.6,24.6,0,0,1,4.9.49c6.4,1.32,9.5,4.9,10.06,5.61l.1.12-10,7.92c-.51-.44-1.91-1.33-4.88-1.33s-7.73.87-14.86,5c-11.83,7.41-23.31,11.16-34.12,11.16a39.1,39.1,0,0,1-19.06-4.62c-6.75-3.76-10.94-9.23-10.94-14.28a6.39,6.39,0,0,1,6.37-6.39A59,59,0,0,0,125.15,187c7.58-4.85,12.49-10.72,12.49-15,0-4-4-17.73-41.43-58-21-22.61-41.92-42.17-42.8-43a6.4,6.4,0,0,1,3.42-11l3.69-.54C48.64,35.49,51.29,7,51.4,5.77A6.42,6.42,0,0,1,57.45,0h.3A6.4,6.4,0,0,1,64,5.16c4.46,22.72,28.3,36,43.23,39.4,3.3.75,6.75,1.46,10.4,2.21,27.6,5.7,65.4,13.49,92.11,50.43,6.69,9.25,13.22,14.28,19.42,15a13.82,13.82,0,0,0,1.58.09c6,0,12.77-3.71,22.06-12,5.48-4.9,11.1-7.38,16.7-7.38a19.75,19.75,0,0,1,4,.41c2.87.6,12.72,3.65,19.14,17.65a17.49,17.49,0,0,0,4.74,5.73A6.38,6.38,0,0,1,299.3,124.7Z"/></svg>